<svg xmlns="http://www.w3.org/2000/svg" xmlns:xlink="http://www.w3.org/1999/xlink" contentStyleType="text/css" data-diagram-type="CLASS" height="1187px" preserveAspectRatio="none" style="width:1369px;height:1187px;background:#F8FAFF;" version="1.1" viewBox="0 0 1369 1187" width="1369px" zoomAndPan="magnify"><title>ADIF Document Generator - Compact Architecture</title><defs><filter height="300%" id="f1b3xsifqsfnhm" width="300%" x="-1" y="-1"><feGaussianBlur result="blurOut" stdDeviation="2"/><feColorMatrix in="blurOut" result="blurOut2" type="matrix" values="0 0 0 0 0 0 0 0 0 0 0 0 0 0 0 0 0 0 .4 0"/><feOffset dx="4" dy="4" in="blurOut2" result="blurOut3"/><feBlend in="SourceGraphic" in2="blurOut3" mode="normal"/></filter></defs><g><rect fill="#F8FAFF" height="1187" style="stroke:none;stroke-width:1;" width="1369" x="0" y="0"/><g class="title" data-source-line="18"><text fill="#00701A" font-family="Verdana" font-size="18" font-weight="bold" lengthAdjust="spacing" textLength="507.375" x="426.4338" y="33.0967">ADIF Document Generator - Compact Architecture</text></g><!--cluster Main Application--><g class="cluster" data-entity="Main Application" data-source-line="21" data-uid="ent0002" id="cluster_Main Application"><rect fill="#E8F5E8" filter="url(#f1b3xsifqsfnhm)" height="341" rx="2.5" ry="2.5" style="stroke:#00C853;stroke-width:1;" width="320" x="12" y="54.876"/><text fill="#000000" font-family="Verdana" font-size="14" font-weight="bold" lengthAdjust="spacing" textLength="130.5186" x="106.7407" y="70.9512">Main Application</text></g><!--cluster Data Models--><g class="cluster" data-entity="Data Models" data-source-line="35" data-uid="ent0005" id="cluster_Data Models"><rect fill="#E8F5E8" filter="url(#f1b3xsifqsfnhm)" height="542" rx="2.5" ry="2.5" style="stroke:#00C853;stroke-width:1;" width="427" x="245" y="633.876"/><text fill="#000000" font-family="Verdana" font-size="14" font-weight="bold" lengthAdjust="spacing" textLength="96.5439" x="410.228" y="649.9512">Data Models</text></g><!--cluster Controllers--><g class="cluster" data-entity="Controllers" data-source-line="66" data-uid="ent0010" id="cluster_Controllers"><rect fill="#E8F5E8" filter="url(#f1b3xsifqsfnhm)" height="336" rx="2.5" ry="2.5" style="stroke:#00C853;stroke-width:1;" width="615" x="356" y="248.876"/><text fill="#000000" font-family="Verdana" font-size="14" font-weight="bold" lengthAdjust="spacing" textLength="86.7959" x="620.1021" y="264.9512">Controllers</text></g><!--cluster Utilities--><g class="cluster" data-entity="Utilities" data-source-line="93" data-uid="ent0015" id="cluster_Utilities"><rect fill="#E8F5E8" filter="url(#f1b3xsifqsfnhm)" height="164" rx="2.5" ry="2.5" style="stroke:#00C853;stroke-width:1;" width="489" x="696" y="650.876"/><text fill="#000000" font-family="Verdana" font-size="14" font-weight="bold" lengthAdjust="spacing" textLength="60.8672" x="910.0664" y="666.9512">Utilities</text></g><!--class MainPy--><g class="entity" data-entity="MainPy" data-source-line="22" data-uid="ent0003" id="entity_MainPy"><rect fill="#FFFFFF" filter="url(#f1b3xsifqsfnhm)" height="95.0439" rx="2.5" ry="2.5" style="stroke:#00C853;stroke-width:1;" width="287.1768" x="28.5" y="90.876"/><rect fill="#00C853" height="28" rx="2.5" ry="2.5" style="stroke:#00C853;stroke-width:1;" width="287.1768" x="28.5" y="90.876"/><rect fill="#00C853" height="2.5" style="stroke:#00C853;stroke-width:1;" width="287.1768" x="28.5" y="116.376"/><rect fill="none" height="95.0439" rx="2.5" ry="2.5" style="stroke:#00C853;stroke-width:1;" width="287.1768" x="28.5" y="90.876"/><ellipse cx="143.5205" cy="104.876" fill="#FFFFFF" rx="9" ry="9" style="stroke:#000000;stroke-width:1;"/><path d="M146.2861,100.751 Q146.4424,100.5322 146.6299,100.4229 Q146.8174,100.3135 147.0361,100.3135 Q147.4111,100.3135 147.6455,100.5713 Q147.8799,100.8291 147.8799,101.4385 L147.8799,102.8916 Q147.8799,103.501 147.6455,103.7666 Q147.4111,104.0322 147.0361,104.0322 Q146.6924,104.0322 146.4893,103.8291 Q146.2861,103.6416 146.1768,103.126 Q146.1299,102.7666 145.9424,102.5791 Q145.6143,102.2041 145.0049,101.9854 Q144.3955,101.7666 143.7705,101.7666 Q143.0049,101.7666 142.3721,102.0947 Q141.7393,102.4229 141.2471,103.1729 Q140.7549,103.9229 140.7549,104.9541 L140.7549,106.0479 Q140.7549,107.2822 141.6455,108.1025 Q142.5361,108.9229 144.1299,108.9229 Q145.0674,108.9229 145.7236,108.6729 Q146.1143,108.5166 146.5361,108.0791 Q146.8018,107.8135 146.9502,107.7354 Q147.0986,107.6572 147.3018,107.6572 Q147.6299,107.6572 147.8877,107.915 Q148.1455,108.1729 148.1455,108.5166 Q148.1455,108.8604 147.8018,109.2666 Q147.3018,109.8447 146.5049,110.1729 Q145.4268,110.626 144.1299,110.626 Q142.6143,110.626 141.4111,110.001 Q140.4268,109.501 139.7393,108.4307 Q139.0518,107.3604 139.0518,106.0791 L139.0518,104.9229 Q139.0518,103.5947 139.6689,102.4463 Q140.2861,101.2979 141.3799,100.6807 Q142.4736,100.0635 143.708,100.0635 Q144.4424,100.0635 145.0908,100.2275 Q145.7393,100.3916 146.2861,100.751 Z " fill="#000000"/><text fill="#1A1D23" font-family="Verdana" font-size="14" lengthAdjust="spacing" textLength="49.6357" x="161.0205" y="110.4438">MainPy</text><line style="stroke:#00C853;stroke-width:1;" x1="29.5" x2="314.6768" y1="118.876" y2="118.876"/><line style="stroke:#00C853;stroke-width:1;" x1="29.5" x2="314.6768" y1="126.876" y2="126.876"/><ellipse cx="39.5" cy="140.8833" fill="#FFFFFF" rx="3" ry="3" style="stroke:#000000;stroke-width:1;"/><text fill="#000000" font-family="Verdana" font-size="14" lengthAdjust="spacing" textLength="76.9385" x="46.5" y="144.9512">main(): int</text><ellipse cx="39.5" cy="157.8979" fill="#FFFFFF" rx="3" ry="3" style="stroke:#000000;stroke-width:1;"/><text fill="#000000" font-family="Verdana" font-size="14" lengthAdjust="spacing" textLength="198.2012" x="46.5" y="161.9658">check_dependencies(): bool</text><ellipse cx="39.5" cy="174.9126" fill="#FFFFFF" rx="3" ry="3" style="stroke:#000000;stroke-width:1;"/><text fill="#000000" font-family="Verdana" font-size="14" lengthAdjust="spacing" textLength="263.1768" x="46.5" y="178.9805">init_application(): ControladorGrafica</text></g><!--class FastSplash--><g class="entity" data-entity="FastSplash" data-source-line="28" data-uid="ent0004" id="entity_FastSplash"><rect fill="#FFFFFF" filter="url(#f1b3xsifqsfnhm)" height="78.0293" rx="2.5" ry="2.5" style="stroke:#00C853;stroke-width:1;" width="213.8477" x="65" y="301.876"/><rect fill="#00C853" height="28" rx="2.5" ry="2.5" style="stroke:#00C853;stroke-width:1;" width="213.8477" x="65" y="301.876"/><rect fill="#00C853" height="2.5" style="stroke:#00C853;stroke-width:1;" width="213.8477" x="65" y="327.376"/><rect fill="none" height="78.0293" rx="2.5" ry="2.5" style="stroke:#00C853;stroke-width:1;" width="213.8477" x="65" y="301.876"/><ellipse cx="130.1934" cy="315.876" fill="#FFFFFF" rx="9" ry="9" style="stroke:#000000;stroke-width:1;"/><path d="M132.959,311.751 Q133.1152,311.5322 133.3027,311.4229 Q133.4902,311.3135 133.709,311.3135 Q134.084,311.3135 134.3184,311.5713 Q134.5527,311.8291 134.5527,312.4385 L134.5527,313.8916 Q134.5527,314.501 134.3184,314.7666 Q134.084,315.0322 133.709,315.0322 Q133.3652,315.0322 133.1621,314.8291 Q132.959,314.6416 132.8496,314.126 Q132.8027,313.7666 132.6152,313.5791 Q132.2871,313.2041 131.6777,312.9854 Q131.0684,312.7666 130.4434,312.7666 Q129.6777,312.7666 129.0449,313.0947 Q128.4121,313.4229 127.9199,314.1729 Q127.4277,314.9229 127.4277,315.9541 L127.4277,317.0479 Q127.4277,318.2822 128.3184,319.1025 Q129.209,319.9229 130.8027,319.9229 Q131.7402,319.9229 132.3965,319.6729 Q132.7871,319.5166 133.209,319.0791 Q133.4746,318.8135 133.623,318.7354 Q133.7715,318.6572 133.9746,318.6572 Q134.3027,318.6572 134.5605,318.915 Q134.8184,319.1729 134.8184,319.5166 Q134.8184,319.8604 134.4746,320.2666 Q133.9746,320.8447 133.1777,321.1729 Q132.0996,321.626 130.8027,321.626 Q129.2871,321.626 128.084,321.001 Q127.0996,320.501 126.4121,319.4307 Q125.7246,318.3604 125.7246,317.0791 L125.7246,315.9229 Q125.7246,314.5947 126.3418,313.4463 Q126.959,312.2979 128.0527,311.6807 Q129.1465,311.0635 130.3809,311.0635 Q131.1152,311.0635 131.7637,311.2275 Q132.4121,311.3916 132.959,311.751 Z " fill="#000000"/><text fill="#1A1D23" font-family="Verdana" font-size="14" lengthAdjust="spacing" textLength="75.9609" x="147.6934" y="321.4438">FastSplash</text><line style="stroke:#00C853;stroke-width:1;" x1="66" x2="277.8477" y1="329.876" y2="329.876"/><line style="stroke:#00C853;stroke-width:1;" x1="66" x2="277.8477" y1="337.876" y2="337.876"/><ellipse cx="76" cy="351.8833" fill="#FFFFFF" rx="3" ry="3" style="stroke:#000000;stroke-width:1;"/><text fill="#000000" font-family="Verdana" font-size="14" lengthAdjust="spacing" textLength="179.1494" x="83" y="355.9512">show_message(str): void</text><ellipse cx="76" cy="368.8979" fill="#FFFFFF" rx="3" ry="3" style="stroke:#000000;stroke-width:1;"/><text fill="#000000" font-family="Verdana" font-size="14" lengthAdjust="spacing" textLength="189.8477" x="83" y="372.9658">update_progress(int): void</text></g><!--class TipoContrato--><g class="entity" data-entity="TipoContrato" data-source-line="36" data-uid="ent0006" id="entity_TipoContrato"><rect fill="#FFFFFF" filter="url(#f1b3xsifqsfnhm)" height="78.0293" rx="2.5" ry="2.5" style="stroke:#00C853;stroke-width:1;" width="219.5049" x="261" y="1081.876"/><rect fill="#00C853" height="28" rx="2.5" ry="2.5" style="stroke:#00C853;stroke-width:1;" width="219.5049" x="261" y="1081.876"/><rect fill="#00C853" height="2.5" style="stroke:#00C853;stroke-width:1;" width="219.5049" x="261" y="1107.376"/><rect fill="none" height="78.0293" rx="2.5" ry="2.5" style="stroke:#00C853;stroke-width:1;" width="219.5049" x="261" y="1081.876"/><ellipse cx="321.6357" cy="1095.876" fill="#FFFFFF" rx="9" ry="9" style="stroke:#000000;stroke-width:1;"/><path d="M320.4951,1096.6729 L320.4951,1099.1729 L324.8232,1099.1729 L324.8232,1098.251 Q324.8232,1097.6416 325.0654,1097.376 Q325.3076,1097.1104 325.6826,1097.1104 Q326.0576,1097.1104 326.292,1097.376 Q326.5264,1097.6416 326.5264,1098.251 L326.5264,1100.876 L318.5264,1100.876 Q317.9014,1100.876 317.6436,1100.6416 Q317.3857,1100.4072 317.3857,1100.0166 Q317.3857,1099.6416 317.6514,1099.4072 Q317.917,1099.1729 318.5264,1099.1729 L318.792,1099.1729 L318.792,1092.5166 L318.5264,1092.5166 Q317.9014,1092.5166 317.6436,1092.2822 Q317.3857,1092.0479 317.3857,1091.6572 Q317.3857,1091.2822 317.6436,1091.0479 Q317.9014,1090.8135 318.5264,1090.8135 L326.1514,1090.8135 L326.1514,1093.4072 Q326.1514,1094.0166 325.9248,1094.2744 Q325.6982,1094.5322 325.3076,1094.5322 Q324.9326,1094.5322 324.6982,1094.2744 Q324.4639,1094.0166 324.4639,1093.4072 L324.4639,1092.5166 L320.4951,1092.5166 L320.4951,1094.9697 L321.9795,1094.9697 Q321.9795,1094.3135 322.1045,1094.126 Q322.3701,1093.7197 322.8389,1093.7197 Q323.2139,1093.7197 323.4482,1093.9775 Q323.6826,1094.2354 323.6826,1094.8447 L323.6826,1096.8135 Q323.6826,1097.3604 323.5576,1097.5479 Q323.292,1097.9385 322.8389,1097.9385 Q322.3701,1097.9385 322.1045,1097.5322 Q321.9795,1097.3447 321.9795,1096.6729 L320.4951,1096.6729 Z " fill="#000000"/><text fill="#1A1D23" font-family="Verdana" font-size="14" lengthAdjust="spacing" textLength="90.7334" x="339.1357" y="1101.4438">TipoContrato</text><line style="stroke:#00C853;stroke-width:1;" x1="262" x2="479.5049" y1="1109.876" y2="1109.876"/><text fill="#000000" font-family="Verdana" font-size="14" lengthAdjust="spacing" textLength="120.2441" x="267" y="1127.9512">SERVICIO, OBRA</text><text fill="#000000" font-family="Verdana" font-size="14" lengthAdjust="spacing" textLength="207.5049" x="267" y="1144.9658">MANTENIMIENTO, FACTURAS</text><line style="stroke:#00C853;stroke-width:1;" x1="262" x2="479.5049" y1="1151.9053" y2="1151.9053"/></g><!--class Proyecto--><g class="entity" data-entity="Proyecto" data-source-line="41" data-uid="ent0007" id="entity_Proyecto"><rect fill="#FFFFFF" filter="url(#f1b3xsifqsfnhm)" height="146.0879" rx="2.5" ry="2.5" style="stroke:#00C853;stroke-width:1;" width="333.1758" x="322.5" y="669.876"/><rect fill="#00C853" height="28" rx="2.5" ry="2.5" style="stroke:#00C853;stroke-width:1;" width="333.1758" x="322.5" y="669.876"/><rect fill="#00C853" height="2.5" style="stroke:#00C853;stroke-width:1;" width="333.1758" x="322.5" y="695.376"/><rect fill="none" height="146.0879" rx="2.5" ry="2.5" style="stroke:#00C853;stroke-width:1;" width="333.1758" x="322.5" y="669.876"/><ellipse cx="454.9146" cy="683.876" fill="#FFFFFF" rx="9" ry="9" style="stroke:#000000;stroke-width:1;"/><path d="M457.6802,679.751 Q457.8364,679.5322 458.0239,679.4229 Q458.2114,679.3135 458.4302,679.3135 Q458.8052,679.3135 459.0396,679.5713 Q459.2739,679.8291 459.2739,680.4385 L459.2739,681.8916 Q459.2739,682.501 459.0396,682.7666 Q458.8052,683.0322 458.4302,683.0322 Q458.0864,683.0322 457.8833,682.8291 Q457.6802,682.6416 457.5708,682.126 Q457.5239,681.7666 457.3364,681.5791 Q457.0083,681.2041 456.3989,680.9854 Q455.7896,680.7666 455.1646,680.7666 Q454.3989,680.7666 453.7661,681.0947 Q453.1333,681.4229 452.6411,682.1729 Q452.1489,682.9229 452.1489,683.9541 L452.1489,685.0479 Q452.1489,686.2822 453.0396,687.1025 Q453.9302,687.9229 455.5239,687.9229 Q456.4614,687.9229 457.1177,687.6729 Q457.5083,687.5166 457.9302,687.0791 Q458.1958,686.8135 458.3442,686.7354 Q458.4927,686.6572 458.6958,686.6572 Q459.0239,686.6572 459.2817,686.915 Q459.5396,687.1729 459.5396,687.5166 Q459.5396,687.8604 459.1958,688.2666 Q458.6958,688.8447 457.8989,689.1729 Q456.8208,689.626 455.5239,689.626 Q454.0083,689.626 452.8052,689.001 Q451.8208,688.501 451.1333,687.4307 Q450.4458,686.3604 450.4458,685.0791 L450.4458,683.9229 Q450.4458,682.5947 451.063,681.4463 Q451.6802,680.2979 452.7739,679.6807 Q453.8677,679.0635 455.1021,679.0635 Q455.8364,679.0635 456.4849,679.2275 Q457.1333,679.3916 457.6802,679.751 Z " fill="#000000"/><text fill="#1A1D23" font-family="Verdana" font-size="14" lengthAdjust="spacing" textLength="60.8467" x="472.4146" y="689.4438">Proyecto</text><line style="stroke:#00C853;stroke-width:1;" x1="323.5" x2="654.6758" y1="697.876" y2="697.876"/><ellipse cx="333.5" cy="711.8833" fill="none" rx="3" ry="3" style="stroke:#000000;stroke-width:1;"/><text fill="#000000" font-family="Verdana" font-size="14" lengthAdjust="spacing" textLength="84.0752" x="340.5" y="715.9512">nombre: str</text><ellipse cx="333.5" cy="728.8979" fill="none" rx="3" ry="3" style="stroke:#000000;stroke-width:1;"/><text fill="#000000" font-family="Verdana" font-size="14" lengthAdjust="spacing" textLength="171.3906" x="340.5" y="732.9658">contrato: DatosContrato</text><ellipse cx="333.5" cy="745.9126" fill="none" rx="3" ry="3" style="stroke:#000000;stroke-width:1;"/><text fill="#000000" font-family="Verdana" font-size="14" lengthAdjust="spacing" textLength="177.6387" x="340.5" y="749.9805">empresas: List[Empresa]</text><ellipse cx="333.5" cy="762.9272" fill="none" rx="3" ry="3" style="stroke:#000000;stroke-width:1;"/><text fill="#000000" font-family="Verdana" font-size="14" lengthAdjust="spacing" textLength="141.5723" x="340.5" y="766.9951">ofertas: List[Oferta]</text><line style="stroke:#00C853;stroke-width:1;" x1="323.5" x2="654.6758" y1="773.9346" y2="773.9346"/><ellipse cx="333.5" cy="787.9419" fill="#FFFFFF" rx="3" ry="3" style="stroke:#000000;stroke-width:1;"/><text fill="#000000" font-family="Verdana" font-size="14" lengthAdjust="spacing" textLength="309.1758" x="340.5" y="792.0098">obtener_empresa_adjudicataria(): Empresa</text><ellipse cx="333.5" cy="804.9565" fill="#FFFFFF" rx="3" ry="3" style="stroke:#000000;stroke-width:1;"/><text fill="#000000" font-family="Verdana" font-size="14" lengthAdjust="spacing" textLength="202.3164" x="340.5" y="809.0244">contar_ofertas_validas(): int</text></g><!--class DatosContrato--><g class="entity" data-entity="DatosContrato" data-source-line="50" data-uid="ent0008" id="entity_DatosContrato"><rect fill="#FFFFFF" filter="url(#f1b3xsifqsfnhm)" height="112.0586" rx="2.5" ry="2.5" style="stroke:#00C853;stroke-width:1;" width="187.5771" x="261" y="892.876"/><rect fill="#00C853" height="28" rx="2.5" ry="2.5" style="stroke:#00C853;stroke-width:1;" width="187.5771" x="261" y="892.876"/><rect fill="#00C853" height="2.5" style="stroke:#00C853;stroke-width:1;" width="187.5771" x="261" y="918.376"/><rect fill="none" height="112.0586" rx="2.5" ry="2.5" style="stroke:#00C853;stroke-width:1;" width="187.5771" x="261" y="892.876"/><ellipse cx="300.2646" cy="906.876" fill="#FFFFFF" rx="9" ry="9" style="stroke:#000000;stroke-width:1;"/><path d="M303.0303,902.751 Q303.1865,902.5322 303.374,902.4229 Q303.5615,902.3135 303.7803,902.3135 Q304.1553,902.3135 304.3896,902.5713 Q304.624,902.8291 304.624,903.4385 L304.624,904.8916 Q304.624,905.501 304.3896,905.7666 Q304.1553,906.0322 303.7803,906.0322 Q303.4365,906.0322 303.2334,905.8291 Q303.0303,905.6416 302.9209,905.126 Q302.874,904.7666 302.6865,904.5791 Q302.3584,904.2041 301.749,903.9854 Q301.1396,903.7666 300.5146,903.7666 Q299.749,903.7666 299.1162,904.0947 Q298.4834,904.4229 297.9912,905.1729 Q297.499,905.9229 297.499,906.9541 L297.499,908.0479 Q297.499,909.2822 298.3896,910.1025 Q299.2803,910.9229 300.874,910.9229 Q301.8115,910.9229 302.4678,910.6729 Q302.8584,910.5166 303.2803,910.0791 Q303.5459,909.8135 303.6943,909.7354 Q303.8428,909.6572 304.0459,909.6572 Q304.374,909.6572 304.6318,909.915 Q304.8896,910.1729 304.8896,910.5166 Q304.8896,910.8604 304.5459,911.2666 Q304.0459,911.8447 303.249,912.1729 Q302.1709,912.626 300.874,912.626 Q299.3584,912.626 298.1553,912.001 Q297.1709,911.501 296.4834,910.4307 Q295.7959,909.3604 295.7959,908.0791 L295.7959,906.9229 Q295.7959,905.5947 296.4131,904.4463 Q297.0303,903.2979 298.124,902.6807 Q299.2178,902.0635 300.4521,902.0635 Q301.1865,902.0635 301.835,902.2275 Q302.4834,902.3916 303.0303,902.751 Z " fill="#000000"/><text fill="#1A1D23" font-family="Verdana" font-size="14" lengthAdjust="spacing" textLength="101.5479" x="317.7646" y="912.4438">DatosContrato</text><line style="stroke:#00C853;stroke-width:1;" x1="262" x2="447.5771" y1="920.876" y2="920.876"/><ellipse cx="272" cy="934.8833" fill="none" rx="3" ry="3" style="stroke:#000000;stroke-width:1;"/><text fill="#000000" font-family="Verdana" font-size="14" lengthAdjust="spacing" textLength="128.5908" x="279" y="938.9512">tipo: TipoContrato</text><ellipse cx="272" cy="951.8979" fill="none" rx="3" ry="3" style="stroke:#000000;stroke-width:1;"/><text fill="#000000" font-family="Verdana" font-size="14" lengthAdjust="spacing" textLength="138.6396" x="279" y="955.9658">importe_base: float</text><ellipse cx="272" cy="968.9126" fill="none" rx="3" ry="3" style="stroke:#000000;stroke-width:1;"/><text fill="#000000" font-family="Verdana" font-size="14" lengthAdjust="spacing" textLength="141.3672" x="279" y="972.9805">plazo_ejecucion: int</text><line style="stroke:#00C853;stroke-width:1;" x1="262" x2="447.5771" y1="979.9199" y2="979.9199"/><ellipse cx="272" cy="993.9272" fill="#FFFFFF" rx="3" ry="3" style="stroke:#000000;stroke-width:1;"/><text fill="#000000" font-family="Verdana" font-size="14" lengthAdjust="spacing" textLength="163.5771" x="279" y="997.9951">calcular_totales(): void</text></g><!--class Empresa--><g class="entity" data-entity="Empresa" data-source-line="57" data-uid="ent0009" id="entity_Empresa"><rect fill="#FFFFFF" filter="url(#f1b3xsifqsfnhm)" height="112.0586" rx="2.5" ry="2.5" style="stroke:#00C853;stroke-width:1;" width="172.374" x="484" y="892.876"/><rect fill="#00C853" height="28" rx="2.5" ry="2.5" style="stroke:#00C853;stroke-width:1;" width="172.374" x="484" y="892.876"/><rect fill="#00C853" height="2.5" style="stroke:#00C853;stroke-width:1;" width="172.374" x="484" y="918.376"/><rect fill="none" height="112.0586" rx="2.5" ry="2.5" style="stroke:#00C853;stroke-width:1;" width="172.374" x="484" y="892.876"/><ellipse cx="535.8325" cy="906.876" fill="#FFFFFF" rx="9" ry="9" style="stroke:#000000;stroke-width:1;"/><path d="M538.5981,902.751 Q538.7544,902.5322 538.9419,902.4229 Q539.1294,902.3135 539.3481,902.3135 Q539.7231,902.3135 539.9575,902.5713 Q540.1919,902.8291 540.1919,903.4385 L540.1919,904.8916 Q540.1919,905.501 539.9575,905.7666 Q539.7231,906.0322 539.3481,906.0322 Q539.0044,906.0322 538.8013,905.8291 Q538.5981,905.6416 538.4888,905.126 Q538.4419,904.7666 538.2544,904.5791 Q537.9263,904.2041 537.3169,903.9854 Q536.7075,903.7666 536.0825,903.7666 Q535.3169,903.7666 534.6841,904.0947 Q534.0513,904.4229 533.5591,905.1729 Q533.0669,905.9229 533.0669,906.9541 L533.0669,908.0479 Q533.0669,909.2822 533.9575,910.1025 Q534.8481,910.9229 536.4419,910.9229 Q537.3794,910.9229 538.0356,910.6729 Q538.4263,910.5166 538.8481,910.0791 Q539.1138,909.8135 539.2622,909.7354 Q539.4106,909.6572 539.6138,909.6572 Q539.9419,909.6572 540.1997,909.915 Q540.4575,910.1729 540.4575,910.5166 Q540.4575,910.8604 540.1138,911.2666 Q539.6138,911.8447 538.8169,912.1729 Q537.7388,912.626 536.4419,912.626 Q534.9263,912.626 533.7231,912.001 Q532.7388,911.501 532.0513,910.4307 Q531.3638,909.3604 531.3638,908.0791 L531.3638,906.9229 Q531.3638,905.5947 531.981,904.4463 Q532.5981,903.2979 533.6919,902.6807 Q534.7856,902.0635 536.02,902.0635 Q536.7544,902.0635 537.4028,902.2275 Q538.0513,902.3916 538.5981,902.751 Z " fill="#000000"/><text fill="#1A1D23" font-family="Verdana" font-size="14" lengthAdjust="spacing" textLength="61.209" x="553.3325" y="912.4438">Empresa</text><line style="stroke:#00C853;stroke-width:1;" x1="485" x2="655.374" y1="920.876" y2="920.876"/><ellipse cx="495" cy="934.8833" fill="none" rx="3" ry="3" style="stroke:#000000;stroke-width:1;"/><text fill="#000000" font-family="Verdana" font-size="14" lengthAdjust="spacing" textLength="84.0752" x="502" y="938.9512">nombre: str</text><ellipse cx="495" cy="951.8979" fill="none" rx="3" ry="3" style="stroke:#000000;stroke-width:1;"/><text fill="#000000" font-family="Verdana" font-size="14" lengthAdjust="spacing" textLength="47.6875" x="502" y="955.9658">nif: str</text><ellipse cx="495" cy="968.9126" fill="none" rx="3" ry="3" style="stroke:#000000;stroke-width:1;"/><text fill="#000000" font-family="Verdana" font-size="14" lengthAdjust="spacing" textLength="68.1133" x="502" y="972.9805">email: str</text><line style="stroke:#00C853;stroke-width:1;" x1="485" x2="655.374" y1="979.9199" y2="979.9199"/><ellipse cx="495" cy="993.9272" fill="#FFFFFF" rx="3" ry="3" style="stroke:#000000;stroke-width:1;"/><text fill="#000000" font-family="Verdana" font-size="14" lengthAdjust="spacing" textLength="148.374" x="502" y="997.9951">validar_datos(): bool</text></g><!--class ControladorGrafica--><g class="entity" data-entity="ControladorGrafica" data-source-line="67" data-uid="ent0011" id="entity_ControladorGrafica"><rect fill="#FFFFFF" filter="url(#f1b3xsifqsfnhm)" height="112.0586" rx="2.5" ry="2.5" style="stroke:#00C853;stroke-width:1;" width="230.8896" x="407.5" y="284.876"/><rect fill="#00C853" height="28" rx="2.5" ry="2.5" style="stroke:#00C853;stroke-width:1;" width="230.8896" x="407.5" y="284.876"/><rect fill="#00C853" height="2.5" style="stroke:#00C853;stroke-width:1;" width="230.8896" x="407.5" y="310.376"/><rect fill="none" height="112.0586" rx="2.5" ry="2.5" style="stroke:#00C853;stroke-width:1;" width="230.8896" x="407.5" y="284.876"/><ellipse cx="453.0605" cy="298.876" fill="#FFFFFF" rx="9" ry="9" style="stroke:#000000;stroke-width:1;"/><path d="M455.8262,294.751 Q455.9824,294.5322 456.1699,294.4229 Q456.3574,294.3135 456.5762,294.3135 Q456.9512,294.3135 457.1855,294.5713 Q457.4199,294.8291 457.4199,295.4385 L457.4199,296.8916 Q457.4199,297.501 457.1855,297.7666 Q456.9512,298.0322 456.5762,298.0322 Q456.2324,298.0322 456.0293,297.8291 Q455.8262,297.6416 455.7168,297.126 Q455.6699,296.7666 455.4824,296.5791 Q455.1543,296.2041 454.5449,295.9854 Q453.9355,295.7666 453.3105,295.7666 Q452.5449,295.7666 451.9121,296.0947 Q451.2793,296.4229 450.7871,297.1729 Q450.2949,297.9229 450.2949,298.9541 L450.2949,300.0479 Q450.2949,301.2822 451.1855,302.1025 Q452.0762,302.9229 453.6699,302.9229 Q454.6074,302.9229 455.2637,302.6729 Q455.6543,302.5166 456.0762,302.0791 Q456.3418,301.8135 456.4902,301.7354 Q456.6387,301.6572 456.8418,301.6572 Q457.1699,301.6572 457.4277,301.915 Q457.6855,302.1729 457.6855,302.5166 Q457.6855,302.8604 457.3418,303.2666 Q456.8418,303.8447 456.0449,304.1729 Q454.9668,304.626 453.6699,304.626 Q452.1543,304.626 450.9512,304.001 Q449.9668,303.501 449.2793,302.4307 Q448.5918,301.3604 448.5918,300.0791 L448.5918,298.9229 Q448.5918,297.5947 449.209,296.4463 Q449.8262,295.2979 450.9199,294.6807 Q452.0137,294.0635 453.248,294.0635 Q453.9824,294.0635 454.6309,294.2275 Q455.2793,294.3916 455.8262,294.751 Z " fill="#000000"/><text fill="#1A1D23" font-family="Verdana" font-size="14" lengthAdjust="spacing" textLength="132.2686" x="470.5605" y="304.4438">ControladorGrafica</text><line style="stroke:#00C853;stroke-width:1;" x1="408.5" x2="637.3896" y1="312.876" y2="312.876"/><ellipse cx="418.5" cy="326.8833" fill="none" rx="3" ry="3" style="stroke:#000000;stroke-width:1;"/><text fill="#000000" font-family="Verdana" font-size="14" lengthAdjust="spacing" textLength="206.8896" x="425.5" y="330.9512">main_window: QMainWindow</text><line style="stroke:#00C853;stroke-width:1;" x1="408.5" x2="637.3896" y1="337.8906" y2="337.8906"/><ellipse cx="418.5" cy="351.8979" fill="#FFFFFF" rx="3" ry="3" style="stroke:#000000;stroke-width:1;"/><text fill="#000000" font-family="Verdana" font-size="14" lengthAdjust="spacing" textLength="140.4512" x="425.5" y="355.9658">inicializar_ui(): void</text><ellipse cx="418.5" cy="368.9126" fill="#FFFFFF" rx="3" ry="3" style="stroke:#000000;stroke-width:1;"/><text fill="#000000" font-family="Verdana" font-size="14" lengthAdjust="spacing" textLength="174.8018" x="425.5" y="372.9805">conectar_senales(): void</text><ellipse cx="418.5" cy="385.9272" fill="#FFFFFF" rx="3" ry="3" style="stroke:#000000;stroke-width:1;"/><text fill="#000000" font-family="Verdana" font-size="14" lengthAdjust="spacing" textLength="192.9922" x="425.5" y="389.9951">actualizar_pestanas(): void</text></g><!--class GestorJsonUnificado--><g class="entity" data-entity="GestorJsonUnificado" data-source-line="74" data-uid="ent0012" id="entity_GestorJsonUnificado"><rect fill="#FFFFFF" filter="url(#f1b3xsifqsfnhm)" height="95.0439" rx="2.5" ry="2.5" style="stroke:#00C853;stroke-width:1;" width="263.4971" x="372.5" y="473.876"/><rect fill="#00C853" height="28" rx="2.5" ry="2.5" style="stroke:#00C853;stroke-width:1;" width="263.4971" x="372.5" y="473.876"/><rect fill="#00C853" height="2.5" style="stroke:#00C853;stroke-width:1;" width="263.4971" x="372.5" y="499.376"/><rect fill="none" height="95.0439" rx="2.5" ry="2.5" style="stroke:#00C853;stroke-width:1;" width="263.4971" x="372.5" y="473.876"/><ellipse cx="429.4355" cy="487.876" fill="#FFFFFF" rx="9" ry="9" style="stroke:#000000;stroke-width:1;"/><path d="M432.2012,483.751 Q432.3574,483.5322 432.5449,483.4229 Q432.7324,483.3135 432.9512,483.3135 Q433.3262,483.3135 433.5605,483.5713 Q433.7949,483.8291 433.7949,484.4385 L433.7949,485.8916 Q433.7949,486.501 433.5605,486.7666 Q433.3262,487.0322 432.9512,487.0322 Q432.6074,487.0322 432.4043,486.8291 Q432.2012,486.6416 432.0918,486.126 Q432.0449,485.7666 431.8574,485.5791 Q431.5293,485.2041 430.9199,484.9854 Q430.3105,484.7666 429.6855,484.7666 Q428.9199,484.7666 428.2871,485.0947 Q427.6543,485.4229 427.1621,486.1729 Q426.6699,486.9229 426.6699,487.9541 L426.6699,489.0479 Q426.6699,490.2822 427.5605,491.1025 Q428.4512,491.9229 430.0449,491.9229 Q430.9824,491.9229 431.6387,491.6729 Q432.0293,491.5166 432.4512,491.0791 Q432.7168,490.8135 432.8652,490.7354 Q433.0137,490.6572 433.2168,490.6572 Q433.5449,490.6572 433.8027,490.915 Q434.0605,491.1729 434.0605,491.5166 Q434.0605,491.8604 433.7168,492.2666 Q433.2168,492.8447 432.4199,493.1729 Q431.3418,493.626 430.0449,493.626 Q428.5293,493.626 427.3262,493.001 Q426.3418,492.501 425.6543,491.4307 Q424.9668,490.3604 424.9668,489.0791 L424.9668,487.9229 Q424.9668,486.5947 425.584,485.4463 Q426.2012,484.2979 427.2949,483.6807 Q428.3887,483.0635 429.623,483.0635 Q430.3574,483.0635 431.0059,483.2275 Q431.6543,483.3916 432.2012,483.751 Z " fill="#000000"/><text fill="#1A1D23" font-family="Verdana" font-size="14" lengthAdjust="spacing" textLength="142.126" x="446.9355" y="493.4438">GestorJsonUnificado</text><line style="stroke:#00C853;stroke-width:1;" x1="373.5" x2="634.9971" y1="501.876" y2="501.876"/><line style="stroke:#00C853;stroke-width:1;" x1="373.5" x2="634.9971" y1="509.876" y2="509.876"/><ellipse cx="383.5" cy="523.8833" fill="#FFFFFF" rx="3" ry="3" style="stroke:#000000;stroke-width:1;"/><text fill="#000000" font-family="Verdana" font-size="14" lengthAdjust="spacing" textLength="218.4355" x="390.5" y="527.9512">cargar_proyecto(str): Proyecto</text><ellipse cx="383.5" cy="540.8979" fill="#FFFFFF" rx="3" ry="3" style="stroke:#000000;stroke-width:1;"/><text fill="#000000" font-family="Verdana" font-size="14" lengthAdjust="spacing" textLength="239.4971" x="390.5" y="544.9658">guardar_proyecto(Proyecto): bool</text><ellipse cx="383.5" cy="557.9126" fill="#FFFFFF" rx="3" ry="3" style="stroke:#000000;stroke-width:1;"/><text fill="#000000" font-family="Verdana" font-size="14" lengthAdjust="spacing" textLength="148.5244" x="390.5" y="561.9805">crear_backup(): void</text></g><!--class ControladorContratos--><g class="entity" data-entity="ControladorContratos" data-source-line="80" data-uid="ent0013" id="entity_ControladorContratos"><rect fill="#FFFFFF" filter="url(#f1b3xsifqsfnhm)" height="95.0439" rx="2.5" ry="2.5" style="stroke:#00C853;stroke-width:1;" width="284.2236" x="671" y="473.876"/><rect fill="#00C853" height="28" rx="2.5" ry="2.5" style="stroke:#00C853;stroke-width:1;" width="284.2236" x="671" y="473.876"/><rect fill="#00C853" height="2.5" style="stroke:#00C853;stroke-width:1;" width="284.2236" x="671" y="499.376"/><rect fill="none" height="95.0439" rx="2.5" ry="2.5" style="stroke:#00C853;stroke-width:1;" width="284.2236" x="671" y="473.876"/><ellipse cx="733.9102" cy="487.876" fill="#FFFFFF" rx="9" ry="9" style="stroke:#000000;stroke-width:1;"/><path d="M736.6758,483.751 Q736.832,483.5322 737.0195,483.4229 Q737.207,483.3135 737.4258,483.3135 Q737.8008,483.3135 738.0352,483.5713 Q738.2695,483.8291 738.2695,484.4385 L738.2695,485.8916 Q738.2695,486.501 738.0352,486.7666 Q737.8008,487.0322 737.4258,487.0322 Q737.082,487.0322 736.8789,486.8291 Q736.6758,486.6416 736.5664,486.126 Q736.5195,485.7666 736.332,485.5791 Q736.0039,485.2041 735.3945,484.9854 Q734.7852,484.7666 734.1602,484.7666 Q733.3945,484.7666 732.7617,485.0947 Q732.1289,485.4229 731.6367,486.1729 Q731.1445,486.9229 731.1445,487.9541 L731.1445,489.0479 Q731.1445,490.2822 732.0352,491.1025 Q732.9258,491.9229 734.5195,491.9229 Q735.457,491.9229 736.1133,491.6729 Q736.5039,491.5166 736.9258,491.0791 Q737.1914,490.8135 737.3398,490.7354 Q737.4883,490.6572 737.6914,490.6572 Q738.0195,490.6572 738.2773,490.915 Q738.5352,491.1729 738.5352,491.5166 Q738.5352,491.8604 738.1914,492.2666 Q737.6914,492.8447 736.8945,493.1729 Q735.8164,493.626 734.5195,493.626 Q733.0039,493.626 731.8008,493.001 Q730.8164,492.501 730.1289,491.4307 Q729.4414,490.3604 729.4414,489.0791 L729.4414,487.9229 Q729.4414,486.5947 730.0586,485.4463 Q730.6758,484.2979 731.7695,483.6807 Q732.8633,483.0635 734.0977,483.0635 Q734.832,483.0635 735.4805,483.2275 Q736.1289,483.3916 736.6758,483.751 Z " fill="#000000"/><text fill="#1A1D23" font-family="Verdana" font-size="14" lengthAdjust="spacing" textLength="150.9033" x="751.4102" y="493.4438">ControladorContratos</text><line style="stroke:#00C853;stroke-width:1;" x1="672" x2="954.2236" y1="501.876" y2="501.876"/><ellipse cx="682" cy="515.8833" fill="none" rx="3" ry="3" style="stroke:#000000;stroke-width:1;"/><text fill="#000000" font-family="Verdana" font-size="14" lengthAdjust="spacing" textLength="260.2236" x="689" y="519.9512">contract_manager: ContractManager</text><line style="stroke:#00C853;stroke-width:1;" x1="672" x2="954.2236" y1="526.8906" y2="526.8906"/><ellipse cx="682" cy="540.8979" fill="#FFFFFF" rx="3" ry="3" style="stroke:#000000;stroke-width:1;"/><text fill="#000000" font-family="Verdana" font-size="14" lengthAdjust="spacing" textLength="197.1006" x="689" y="544.9658">activar_modo_obras(): void</text><ellipse cx="682" cy="557.9126" fill="#FFFFFF" rx="3" ry="3" style="stroke:#000000;stroke-width:1;"/><text fill="#000000" font-family="Verdana" font-size="14" lengthAdjust="spacing" textLength="218.8662" x="689" y="561.9805">activar_modo_servicios(): void</text></g><!--class ControladorDocumentos--><g class="entity" data-entity="ControladorDocumentos" data-source-line="86" data-uid="ent0014" id="entity_ControladorDocumentos"><rect fill="#FFFFFF" filter="url(#f1b3xsifqsfnhm)" height="78.0293" rx="2.5" ry="2.5" style="stroke:#00C853;stroke-width:1;" width="273.4502" x="680.5" y="301.876"/><rect fill="#00C853" height="28" rx="2.5" ry="2.5" style="stroke:#00C853;stroke-width:1;" width="273.4502" x="680.5" y="301.876"/><rect fill="#00C853" height="2.5" style="stroke:#00C853;stroke-width:1;" width="273.4502" x="680.5" y="327.376"/><rect fill="none" height="78.0293" rx="2.5" ry="2.5" style="stroke:#00C853;stroke-width:1;" width="273.4502" x="680.5" y="301.876"/><ellipse cx="728.4121" cy="315.876" fill="#FFFFFF" rx="9" ry="9" style="stroke:#000000;stroke-width:1;"/><path d="M731.1777,311.751 Q731.334,311.5322 731.5215,311.4229 Q731.709,311.3135 731.9277,311.3135 Q732.3027,311.3135 732.5371,311.5713 Q732.7715,311.8291 732.7715,312.4385 L732.7715,313.8916 Q732.7715,314.501 732.5371,314.7666 Q732.3027,315.0322 731.9277,315.0322 Q731.584,315.0322 731.3809,314.8291 Q731.1777,314.6416 731.0684,314.126 Q731.0215,313.7666 730.834,313.5791 Q730.5059,313.2041 729.8965,312.9854 Q729.2871,312.7666 728.6621,312.7666 Q727.8965,312.7666 727.2637,313.0947 Q726.6309,313.4229 726.1387,314.1729 Q725.6465,314.9229 725.6465,315.9541 L725.6465,317.0479 Q725.6465,318.2822 726.5371,319.1025 Q727.4277,319.9229 729.0215,319.9229 Q729.959,319.9229 730.6152,319.6729 Q731.0059,319.5166 731.4277,319.0791 Q731.6934,318.8135 731.8418,318.7354 Q731.9902,318.6572 732.1934,318.6572 Q732.5215,318.6572 732.7793,318.915 Q733.0371,319.1729 733.0371,319.5166 Q733.0371,319.8604 732.6934,320.2666 Q732.1934,320.8447 731.3965,321.1729 Q730.3184,321.626 729.0215,321.626 Q727.5059,321.626 726.3027,321.001 Q725.3184,320.501 724.6309,319.4307 Q723.9434,318.3604 723.9434,317.0791 L723.9434,315.9229 Q723.9434,314.5947 724.5605,313.4463 Q725.1777,312.2979 726.2715,311.6807 Q727.3652,311.0635 728.5996,311.0635 Q729.334,311.0635 729.9824,311.2275 Q730.6309,311.3916 731.1777,311.751 Z " fill="#000000"/><text fill="#1A1D23" font-family="Verdana" font-size="14" lengthAdjust="spacing" textLength="170.126" x="745.9121" y="321.4438">ControladorDocumentos</text><line style="stroke:#00C853;stroke-width:1;" x1="681.5" x2="952.9502" y1="329.876" y2="329.876"/><line style="stroke:#00C853;stroke-width:1;" x1="681.5" x2="952.9502" y1="337.876" y2="337.876"/><ellipse cx="691.5" cy="351.8833" fill="#FFFFFF" rx="3" ry="3" style="stroke:#000000;stroke-width:1;"/><text fill="#000000" font-family="Verdana" font-size="14" lengthAdjust="spacing" textLength="249.4502" x="698.5" y="355.9512">generar_documento(str, dict): bool</text><ellipse cx="691.5" cy="368.8979" fill="#FFFFFF" rx="3" ry="3" style="stroke:#000000;stroke-width:1;"/><text fill="#000000" font-family="Verdana" font-size="14" lengthAdjust="spacing" textLength="167.4668" x="698.5" y="372.9658">procesar_plantilla(): str</text></g><!--class ContractManager--><g class="entity" data-entity="ContractManager" data-source-line="94" data-uid="ent0016" id="entity_ContractManager"><rect fill="#FFFFFF" filter="url(#f1b3xsifqsfnhm)" height="112.0586" rx="2.5" ry="2.5" style="stroke:#00C853;stroke-width:1;" width="202.165" x="712" y="686.876"/><rect fill="#00C853" height="28" rx="2.5" ry="2.5" style="stroke:#00C853;stroke-width:1;" width="202.165" x="712" y="686.876"/><rect fill="#00C853" height="2.5" style="stroke:#00C853;stroke-width:1;" width="202.165" x="712" y="712.376"/><rect fill="none" height="112.0586" rx="2.5" ry="2.5" style="stroke:#00C853;stroke-width:1;" width="202.165" x="712" y="686.876"/><ellipse cx="749.2152" cy="700.876" fill="#FFFFFF" rx="9" ry="9" style="stroke:#000000;stroke-width:1;"/><path d="M751.9808,696.751 Q752.1371,696.5322 752.3246,696.4229 Q752.5121,696.3135 752.7308,696.3135 Q753.1058,696.3135 753.3402,696.5713 Q753.5746,696.8291 753.5746,697.4385 L753.5746,698.8916 Q753.5746,699.501 753.3402,699.7666 Q753.1058,700.0322 752.7308,700.0322 Q752.3871,700.0322 752.1839,699.8291 Q751.9808,699.6416 751.8714,699.126 Q751.8246,698.7666 751.6371,698.5791 Q751.3089,698.2041 750.6996,697.9854 Q750.0902,697.7666 749.4652,697.7666 Q748.6996,697.7666 748.0667,698.0947 Q747.4339,698.4229 746.9417,699.1729 Q746.4496,699.9229 746.4496,700.9541 L746.4496,702.0479 Q746.4496,703.2822 747.3402,704.1025 Q748.2308,704.9229 749.8246,704.9229 Q750.7621,704.9229 751.4183,704.6729 Q751.8089,704.5166 752.2308,704.0791 Q752.4964,703.8135 752.6449,703.7354 Q752.7933,703.6572 752.9964,703.6572 Q753.3246,703.6572 753.5824,703.915 Q753.8402,704.1729 753.8402,704.5166 Q753.8402,704.8604 753.4964,705.2666 Q752.9964,705.8447 752.1996,706.1729 Q751.1214,706.626 749.8246,706.626 Q748.3089,706.626 747.1058,706.001 Q746.1214,705.501 745.4339,704.4307 Q744.7464,703.3604 744.7464,702.0791 L744.7464,700.9229 Q744.7464,699.5947 745.3636,698.4463 Q745.9808,697.2979 747.0746,696.6807 Q748.1683,696.0635 749.4027,696.0635 Q750.1371,696.0635 750.7855,696.2275 Q751.4339,696.3916 751.9808,696.751 Z " fill="#000000"/><text fill="#1A1D23" font-family="Verdana" font-size="14" lengthAdjust="spacing" textLength="120.3535" x="766.5963" y="706.4438">ContractManager</text><line style="stroke:#00C853;stroke-width:1;" x1="713" x2="913.165" y1="714.876" y2="714.876"/><ellipse cx="723" cy="728.8833" fill="none" rx="3" ry="3" style="stroke:#000000;stroke-width:1;"/><text fill="#000000" font-family="Verdana" font-size="14" lengthAdjust="spacing" textLength="161.2734" x="730" y="732.9512">contracts_list: List[str]</text><ellipse cx="723" cy="745.8979" fill="none" rx="3" ry="3" style="stroke:#000000;stroke-width:1;"/><text fill="#000000" font-family="Verdana" font-size="14" lengthAdjust="spacing" textLength="147.1436" x="730" y="749.9658">current_contract: str</text><line style="stroke:#00C853;stroke-width:1;" x1="713" x2="913.165" y1="756.9053" y2="756.9053"/><ellipse cx="723" cy="770.9126" fill="#FFFFFF" rx="3" ry="3" style="stroke:#000000;stroke-width:1;"/><text fill="#000000" font-family="Verdana" font-size="14" lengthAdjust="spacing" textLength="156.3652" x="730" y="774.9805">load_contracts(): void</text><ellipse cx="723" cy="787.9272" fill="#FFFFFF" rx="3" ry="3" style="stroke:#000000;stroke-width:1;"/><text fill="#000000" font-family="Verdana" font-size="14" lengthAdjust="spacing" textLength="178.165" x="730" y="791.9951">get_contract_data(): dict</text></g><!--class ValidacionUtils--><g class="entity" data-entity="ValidacionUtils" data-source-line="101" data-uid="ent0017" id="entity_ValidacionUtils"><rect fill="#FFFFFF" filter="url(#f1b3xsifqsfnhm)" height="95.0439" rx="2.5" ry="2.5" style="stroke:#00C853;stroke-width:1;" width="219.6309" x="949" y="695.376"/><rect fill="#00C853" height="28" rx="2.5" ry="2.5" style="stroke:#00C853;stroke-width:1;" width="219.6309" x="949" y="695.376"/><rect fill="#00C853" height="2.5" style="stroke:#00C853;stroke-width:1;" width="219.6309" x="949" y="720.876"/><rect fill="none" height="95.0439" rx="2.5" ry="2.5" style="stroke:#00C853;stroke-width:1;" width="219.6309" x="949" y="695.376"/><ellipse cx="1004.0522" cy="709.376" fill="#FFFFFF" rx="9" ry="9" style="stroke:#000000;stroke-width:1;"/><path d="M1006.8179,705.251 Q1006.9741,705.0322 1007.1616,704.9229 Q1007.3491,704.8135 1007.5679,704.8135 Q1007.9429,704.8135 1008.1772,705.0713 Q1008.4116,705.3291 1008.4116,705.9385 L1008.4116,707.3916 Q1008.4116,708.001 1008.1772,708.2666 Q1007.9429,708.5322 1007.5679,708.5322 Q1007.2241,708.5322 1007.021,708.3291 Q1006.8179,708.1416 1006.7085,707.626 Q1006.6616,707.2666 1006.4741,707.0791 Q1006.146,706.7041 1005.5366,706.4854 Q1004.9272,706.2666 1004.3022,706.2666 Q1003.5366,706.2666 1002.9038,706.5947 Q1002.271,706.9229 1001.7788,707.6729 Q1001.2866,708.4229 1001.2866,709.4541 L1001.2866,710.5479 Q1001.2866,711.7822 1002.1772,712.6025 Q1003.0679,713.4229 1004.6616,713.4229 Q1005.5991,713.4229 1006.2554,713.1729 Q1006.646,713.0166 1007.0679,712.5791 Q1007.3335,712.3135 1007.4819,712.2354 Q1007.6304,712.1572 1007.8335,712.1572 Q1008.1616,712.1572 1008.4194,712.415 Q1008.6772,712.6729 1008.6772,713.0166 Q1008.6772,713.3604 1008.3335,713.7666 Q1007.8335,714.3447 1007.0366,714.6729 Q1005.9585,715.126 1004.6616,715.126 Q1003.146,715.126 1001.9429,714.501 Q1000.9585,714.001 1000.271,712.9307 Q999.5835,711.8604 999.5835,710.5791 L999.5835,709.4229 Q999.5835,708.0947 1000.2007,706.9463 Q1000.8179,705.7979 1001.9116,705.1807 Q1003.0054,704.5635 1004.2397,704.5635 Q1004.9741,704.5635 1005.6226,704.7275 Q1006.271,704.8916 1006.8179,705.251 Z " fill="#000000"/><text fill="#1A1D23" font-family="Verdana" font-size="14" lengthAdjust="spacing" textLength="102.0264" x="1021.5522" y="714.9438">ValidacionUtils</text><line style="stroke:#00C853;stroke-width:1;" x1="950" x2="1167.6309" y1="723.376" y2="723.376"/><line style="stroke:#00C853;stroke-width:1;" x1="950" x2="1167.6309" y1="731.376" y2="731.376"/><ellipse cx="960" cy="745.3833" fill="#FFFFFF" rx="3" ry="3" style="stroke:#000000;stroke-width:1;"/><text fill="#000000" font-family="Verdana" font-size="14" lengthAdjust="spacing" textLength="146.3438" x="967" y="749.4512">validar_nif(str): bool</text><ellipse cx="960" cy="762.3979" fill="#FFFFFF" rx="3" ry="3" style="stroke:#000000;stroke-width:1;"/><text fill="#000000" font-family="Verdana" font-size="14" lengthAdjust="spacing" textLength="166.7695" x="967" y="766.4658">validar_email(str): bool</text><ellipse cx="960" cy="779.4126" fill="#FFFFFF" rx="3" ry="3" style="stroke:#000000;stroke-width:1;"/><text fill="#000000" font-family="Verdana" font-size="14" lengthAdjust="spacing" textLength="195.6309" x="967" y="783.4805">validar_importe(float): bool</text></g><g class="entity" data-entity="GMN28" data-source-line="121" data-uid="ent0029" id="entity_GMN28"><path d="M1204,714.376 L1204,771.7739 L1362.2427,771.7739 L1362.2427,724.376 L1352.2427,714.376 L1204,714.376" fill="#FFFFFF" filter="url(#f1b3xsifqsfnhm)" style="stroke:#000000;stroke-width:1;"/><path d="M1352.2427,714.376 L1352.2427,724.376 L1362.2427,724.376 L1352.2427,714.376" fill="#FFFFFF" style="stroke:#000000;stroke-width:1;"/><text fill="#000000" font-family="Verdana" font-size="13" lengthAdjust="spacing" textLength="125.0171" x="1210" y="732.4458">Central data model</text><text fill="#000000" font-family="Verdana" font-size="13" lengthAdjust="spacing" textLength="137.2427" x="1210" y="748.2451">containing all project</text><text fill="#000000" font-family="Verdana" font-size="13" lengthAdjust="spacing" textLength="75.061" x="1210" y="764.0444">information</text></g><g class="entity" data-entity="GMN31" data-source-line="127" data-uid="ent0032" id="entity_GMN31"><path d="M989,312.376 L989,369.7739 L1126.562,369.7739 L1126.562,322.376 L1116.562,312.376 L989,312.376" fill="#FFFFFF" filter="url(#f1b3xsifqsfnhm)" style="stroke:#000000;stroke-width:1;"/><path d="M1116.562,312.376 L1116.562,322.376 L1126.562,322.376 L1116.562,312.376" fill="#FFFFFF" style="stroke:#000000;stroke-width:1;"/><text fill="#000000" font-family="Verdana" font-size="13" lengthAdjust="spacing" textLength="116.562" x="995" y="330.4458">Main UI controller</text><text fill="#000000" font-family="Verdana" font-size="13" lengthAdjust="spacing" textLength="94.9546" x="995" y="346.2451">coordinates all</text><text fill="#000000" font-family="Verdana" font-size="13" lengthAdjust="spacing" textLength="107.7515" x="995" y="362.0444">other controllers</text></g><!--link MainPy to ControladorGrafica--><g class="link" data-entity-1="MainPy" data-entity-2="ControladorGrafica" data-source-line="109" data-uid="lnk18" id="link_MainPy_ControladorGrafica"><path codeLine="109" d="M253.41,185.876 C305.05,215.376 366.9099,250.7203 421.2399,281.7503" fill="none" id="MainPy-to-ControladorGrafica" style="stroke:#4A5568;stroke-width:1;"/><polygon fill="#4A5568" points="426.45,284.726,420.6186,276.789,422.1082,282.2462,416.651,283.7358,426.45,284.726" style="stroke:#4A5568;stroke-width:1;"/><text fill="#000000" font-family="Verdana" font-size="13" lengthAdjust="spacing" textLength="47.5122" x="328" y="229.9458">creates</text></g><!--link MainPy to FastSplash--><g class="link" data-entity-1="MainPy" data-entity-2="FastSplash" data-source-line="110" data-uid="lnk19" id="link_MainPy_FastSplash"><path codeLine="110" d="M172,185.876 C172,221.046 172,262.746 172,295.696" fill="none" id="MainPy-to-FastSplash" style="stroke:#4A5568;stroke-width:1;"/><polygon fill="#4A5568" points="172,301.696,176,292.696,172,296.696,168,292.696,172,301.696" style="stroke:#4A5568;stroke-width:1;"/><text fill="#000000" font-family="Verdana" font-size="13" lengthAdjust="spacing" textLength="29.5166" x="173" y="229.9458">uses</text></g><!--link ControladorGrafica to ControladorContratos--><g class="link" data-entity-1="ControladorGrafica" data-entity-2="ControladorContratos" data-source-line="111" data-uid="lnk20" id="link_ControladorGrafica_ControladorContratos"><path codeLine="111" d="M612.38,396.886 C652.32,421.476 693.7904,447.0008 732.0004,470.5208" fill="none" id="ControladorGrafica-to-ControladorContratos" style="stroke:#4A5568;stroke-width:1;"/><polygon fill="#4A5568" points="737.11,473.666,731.5424,465.5418,732.852,471.045,727.3488,472.3546,737.11,473.666" style="stroke:#4A5568;stroke-width:1;"/><text fill="#000000" font-family="Verdana" font-size="13" lengthAdjust="spacing" textLength="59.103" x="686" y="440.9458">manages</text></g><!--link ControladorGrafica to GestorJsonUnificado--><g class="link" data-entity-1="ControladorGrafica" data-entity-2="GestorJsonUnificado" data-source-line="112" data-uid="lnk21" id="link_ControladorGrafica_GestorJsonUnificado"><path codeLine="112" d="M517.14,396.886 C514.53,421.476 512.1167,444.1799 509.6067,467.6999" fill="none" id="ControladorGrafica-to-GestorJsonUnificado" style="stroke:#4A5568;stroke-width:1;"/><polygon fill="#4A5568" points="508.97,473.666,513.9025,465.1413,509.5006,468.6942,505.9476,464.2923,508.97,473.666" style="stroke:#4A5568;stroke-width:1;"/><text fill="#000000" font-family="Verdana" font-size="13" lengthAdjust="spacing" textLength="29.5166" x="514" y="440.9458">uses</text></g><!--link ControladorContratos to ContractManager--><g class="link" data-entity-1="ControladorContratos" data-entity-2="ContractManager" data-source-line="113" data-uid="lnk22" id="link_ControladorContratos_ContractManager"><path codeLine="113" d="M813,568.926 C813,603.406 813,644.516 813,680.856" fill="none" id="ControladorContratos-to-ContractManager" style="stroke:#4A5568;stroke-width:1;"/><polygon fill="#4A5568" points="813,686.856,817,677.856,813,681.856,809,677.856,813,686.856" style="stroke:#4A5568;stroke-width:1;"/><text fill="#000000" font-family="Verdana" font-size="13" lengthAdjust="spacing" textLength="29.5166" x="814" y="614.9458">uses</text></g><!--link Proyecto to DatosContrato--><g class="link" data-entity-1="Proyecto" data-entity-2="DatosContrato" data-source-line="114" data-uid="lnk23" id="link_Proyecto_DatosContrato"><path codeLine="114" d="M441.57,816.086 C425,841.306 409.9838,864.1609 394.4838,887.7609" fill="none" id="Proyecto-to-DatosContrato" style="stroke:#4A5568;stroke-width:1;"/><polygon fill="#4A5568" points="391.19,892.776,399.4741,887.4492,393.9348,888.5968,392.7873,883.0575,391.19,892.776" style="stroke:#4A5568;stroke-width:1;"/><text fill="#000000" font-family="Verdana" font-size="13" lengthAdjust="spacing" textLength="54.3867" x="423" y="859.9458">contains</text></g><!--link Proyecto to Empresa--><g class="link" data-entity-1="Proyecto" data-entity-2="Empresa" data-source-line="115" data-uid="lnk24" id="link_Proyecto_Empresa"><path codeLine="115" d="M517.67,816.086 C527.68,841.306 536.5359,863.5994 545.9059,887.1994" fill="none" id="Proyecto-to-Empresa" style="stroke:#4A5568;stroke-width:1;"/><polygon fill="#4A5568" points="548.12,892.776,548.5166,882.9351,546.2749,888.1289,541.0812,885.8872,548.12,892.776" style="stroke:#4A5568;stroke-width:1;"/><text fill="#000000" font-family="Verdana" font-size="13" lengthAdjust="spacing" textLength="54.3867" x="535" y="859.9458">contains</text></g><!--link DatosContrato to TipoContrato--><g class="link" data-entity-1="DatosContrato" data-entity-2="TipoContrato" data-source-line="116" data-uid="lnk25" id="link_DatosContrato_TipoContrato"><path codeLine="116" d="M360.19,1005.066 C362.56,1030.176 364.7399,1053.2922 366.8599,1075.9022" fill="none" id="DatosContrato-to-TipoContrato" style="stroke:#4A5568;stroke-width:1;"/><polygon fill="#4A5568" points="367.42,1081.876,370.5623,1072.5419,366.9532,1076.8978,362.5973,1073.2887,367.42,1081.876" style="stroke:#4A5568;stroke-width:1;"/><text fill="#000000" font-family="Verdana" font-size="13" lengthAdjust="spacing" textLength="29.5166" x="365" y="1048.9458">uses</text></g><!--link GestorJsonUnificado to Proyecto--><g class="link" data-entity-1="GestorJsonUnificado" data-entity-2="Proyecto" data-source-line="117" data-uid="lnk26" id="link_GestorJsonUnificado_Proyecto"><path codeLine="117" d="M500.82,568.926 C498.82,598.126 496.6186,630.3799 494.3586,663.4899" fill="none" id="GestorJsonUnificado-to-Proyecto" style="stroke:#4A5568;stroke-width:1;"/><polygon fill="#4A5568" points="493.95,669.476,498.5536,660.7693,494.2905,664.4876,490.5722,660.2245,493.95,669.476" style="stroke:#4A5568;stroke-width:1;"/><text fill="#000000" font-family="Verdana" font-size="13" lengthAdjust="spacing" textLength="76.832" x="499" y="614.9458">loads/saves</text></g><!--link ControladorDocumentos to ValidacionUtils--><g class="link" data-entity-1="ControladorDocumentos" data-entity-2="ValidacionUtils" data-source-line="118" data-uid="lnk27" id="link_ControladorDocumentos_ValidacionUtils"><path codeLine="118" d="M876.83,380.116 C909.36,403.646 947.95,436.426 973,473.876 C1019.32,543.126 1041.037,633.1091 1051.077,689.4291" fill="none" id="ControladorDocumentos-to-ValidacionUtils" style="stroke:#4A5568;stroke-width:1;"/><polygon fill="#4A5568" points="1052.13,695.336,1054.4884,685.7737,1051.2525,690.4136,1046.6126,687.1777,1052.13,695.336" style="stroke:#4A5568;stroke-width:1;"/><text fill="#000000" font-family="Verdana" font-size="13" lengthAdjust="spacing" textLength="29.5166" x="1027" y="526.9458">uses</text></g><!--link Proyecto to GMN28--><g class="link" data-entity-1="Proyecto" data-entity-2="GMN28" data-source-line="121" data-uid="lnk30" id="link_Proyecto_GMN28"><path d="M586.01,669.726 C623.76,645.546 668.68,621.696 713.5,609.376 C762.14,596.006 1120.62,590.756 1167.5,609.376 C1215.92,628.606 1250.97,681.166 1269.05,714.306" fill="none" id="Proyecto-GMN28" style="stroke:#4A5568;stroke-width:1;stroke-dasharray:7,7;"/></g><!--link GMN31 to ControladorGrafica--><g class="link" data-entity-1="GMN31" data-entity-2="ControladorGrafica" data-source-line="127" data-uid="lnk33" id="link_GMN31_ControladorGrafica"><path d="M1044.26,312.216 C1027.63,281.276 996.44,233.706 953.5,213.376 C898.67,187.416 737.69,193.126 680.5,213.376 C639.87,227.756 602.07,257.576 573.68,284.756" fill="none" id="GMN31-ControladorGrafica" style="stroke:#4A5568;stroke-width:1;stroke-dasharray:7,7;"/></g><!--SRC=[ZLTRRzis57xth-2wXsPeipdPiWL65q1rv5I3BvaltSCm2BH4osmfKY2f1CsG_xv3chAeIvpfmO1vFfxBn-ySIj_fFSa9AXYcV31uYpPCIunc8YMIeqs4rjPyERoyGkTeXdMofpn3ED5O_LZIWVfAUO4bpj4M9rypAKgUZWKJ4dq_kPu4auc7I1XMwcC7PfyEJ4Z8m466m_7rrSzjo2U20TBnTmey4LoV3Ei1BeABsqlVJm6HS4Ow0SFhoLLutGCyMO83UG67mz-65u47mLAAHsVy9RYw-jKFegbcTlUAFX5qqMjwoR7QurGycdFKiYI3WTs0WjjeWcv5KkQ4QtH7E95Om_vpD1OvfAjH8E7qDKbqAM7Nsz_z1ys2Q8w2-_jfD0xMqMAE6kQ1gnUzcO7GK50KZ2POKy7Ve0yVbk0JyuoHcnlqxm31Oqy36UpzDxTaddSvh9pzC4AKwtensPFaQvoIWl2Ky8GIPI1R8LYDePpg6DTX3M8C74d1W0nv9_4EB1R_R7-zD2POwHLqYDhxgQYzU8npeXIKTQQq18SFWgOre2nIh4bSI959W9r1pZxcUV3S8N6yM8PejhWDfwkN-Bl5-j2VJFLJHtYPepKjX2qFZj1BUXKkFqVZQF4UBJukW-FoB9YlmtaqYyBv6coJOBpUB8DLFnltKdo3eBxRTrpaMqb626ZmZiN57o78MQWgdHf0yWA8mMg4fbJflyF3ttzgWDWHgO_sXVtdcxVQg3HsVcASVYbJSxvOKcmEs7bifeHbxFp63vZH52jVK9ro6xdxDMkWUDGWsbDRNWW9Px_52bZPCO4zkOAIdaHClf2aJ429RJ5ZbfGCajH2OtQGigUPLdQkmbVFWjDTQuL0Ax7Mse4F6QUcvaOFzOjrlbukfjDm-Q9ONOSn8jMfFkysOhldOnXNCBD6w4yp4_woVnhDdL38_GboB-bPfnFXs4ra6Il2EvnQ18otqZaeY88ayIl4tm5Ao3-Ku1lW5Z9E6-98iCoCBzShRZvKhLFZiXBBr0TMaCu0IoG1dBbbo-9qQXwRbJ9L8pUxcEWuXp8p8jqWX9NPOQ512ts0iBb8HIos4lTJLsCKaGzm5aBzxnIh6wUPOsQl7r1YPJKClaVGtRh3372NG0y0YGnpJHcplLy9kq-vctKqZTPH-A9kD-26QhX8NbLjpLeVnIfcCBdS_8AClE6Lb592ON45RRKYZ8pqQEjXFIFrLjEljcP3Jp_Xdsrdct5ZIcjGNJKzoDZ9j4blPRS3uoJ2JRqpE-zUcnxBS6hV4rQVellsERXx__pyfcyqZ93f1KsKZ_Fkw14g5HXxThOSrjqnGeTUU75NNxjtuzGEZv4yVJZyyVuqcERj0fMP2uho5ggQyfwzkT606bU-YzMNji4UlO-G4PhwIU67PYbUMveDRVqu_mCkD46IPdkDnCwVRsDYCc78I1FbvdK55btszWk2CGID2vUWKIpbEo5p-s8sW9SuPDmwvupihE_UbpNxCWbVASdndh5HuCsRSgCG4mPM17paI0-awY3_0G00]--></g></svg>